<?xml version="1.0" encoding="utf-8"?>
<!-- Generator: Adobe Illustrator 25.0.0, SVG Export Plug-In . SVG Version: 6.00 Build 0)  -->
<svg version="1.1" id="Layer_1" xmlns="http://www.w3.org/2000/svg" xmlns:xlink="http://www.w3.org/1999/xlink" x="0px" y="0px"
	 viewBox="0 0 16 16" style="enable-background:new 0 0 16 16;" xml:space="preserve">
<style type="text/css">
	.st0{fill:#FFFFFF;}
	.st1{fill:#563D7C;}
</style>
<path class="st0" d="M13,15.7H3.3c-1.4,0-2.6-1.2-2.6-2.6V2.9c0-1.4,1.2-2.6,2.6-2.6H13c1.4,0,2.6,1.2,2.6,2.6v10.2
	C15.6,14.5,14.4,15.7,13,15.7z"/>
<path class="st1" d="M13.3,0H2.7C1.2,0,0,1.2,0,2.7v10.7C0,14.8,1.2,16,2.7,16h10.7c1.5,0,2.7-1.2,2.7-2.7V2.7C16,1.2,14.8,0,13.3,0
	z M11.9,11.2c-0.1,0.3-0.3,0.6-0.6,0.8c-0.3,0.2-0.6,0.4-1.1,0.6c-0.4,0.1-1,0.2-1.6,0.2H4.3V3.5h4.5c0.8,0,1.5,0.2,2,0.6
	c0.5,0.4,0.8,1,0.8,1.7c0,0.5-0.1,0.9-0.3,1.2c-0.2,0.3-0.6,0.6-1,0.8v0c0.6,0.1,1,0.4,1.3,0.8s0.4,0.9,0.4,1.6
	C12.1,10.6,12,10.9,11.9,11.2L11.9,11.2z M10,8.9C9.8,8.7,9.4,8.6,8.9,8.6H6v2.9h2.9c0.5,0,0.9-0.1,1.2-0.4c0.3-0.3,0.4-0.6,0.4-1.1
	C10.4,9.5,10.3,9.2,10,8.9L10,8.9z M9.6,7.1c0.3-0.2,0.4-0.5,0.4-1c0-0.5-0.1-0.8-0.4-1c-0.2-0.2-0.6-0.3-1-0.3H6v2.6h2.7
	C9,7.4,9.4,7.3,9.6,7.1L9.6,7.1z"/>
</svg>
